<?xml version="1.0" encoding="UTF-8"?>
<svg width="33px" height="33px" viewBox="0 0 33 33" version="1.1" xmlns="http://www.w3.org/2000/svg" xmlns:xlink="http://www.w3.org/1999/xlink">
    <!-- Generator: Sketch 3.6.1 (26313) - http://www.bohemiancoding.com/sketch -->
    <title>style_2_copy_55</title>
    <desc>Created with Sketch.</desc>
    <defs></defs>
    <g id="Welcome" stroke="none" stroke-width="1" fill="none" fill-rule="evenodd">
        <g id="Web-Desktop-Main" transform="translate(-139.000000, -430.000000)">
            <g id="Header-Image" transform="translate(-5.500000, 52.839138)">
                <g id="style_2_copy_55" transform="translate(145.000000, 378.000000)">
                    <g id="Group">
                        <path d="M16,31.5 C7.453,31.5 0.5,24.547 0.5,16 C0.5,7.453 7.453,0.5 16,0.5 C24.547,0.5 31.5,7.453 31.5,16 C31.5,24.547 24.547,31.5 16,31.5 L16,31.5 Z" id="Shape" fill="#FFFFFF"></path>
                        <path d="M16,1 C24.271,1 31,7.729 31,16 C31,24.271 24.271,31 16,31 C7.729,31 1,24.271 1,16 C1,7.729 7.729,1 16,1 L16,1 Z M16,0 C7.163,0 0,7.163 0,16 C0,24.837 7.163,32 16,32 C24.837,32 32,24.837 32,16 C32,7.163 24.837,0 16,0 L16,0 L16,0 Z" id="Shape" fill="#00BDFF"></path>
                        <path d="M16,3.007 C23.165,3.007 28.993,8.836 28.993,16 C28.993,23.164 23.164,28.993 16,28.993 C8.836,28.993 3.007,23.164 3.007,16 C3.007,8.836 8.835,3.007 16,3.007" id="Shape" fill="#000000"></path>
                        <path d="M16,3.006 C8.836,3.006 3.006,8.836 3.006,16 C3.006,19.605 4.484,22.871 6.864,25.227 L25.227,6.864 C22.871,4.485 19.605,3.006 16,3.006 L16,3.006 Z" id="Shape" fill="#FFFFFF" opacity="0.3"></path>
                    </g>
                    <path d="M21.555,8.593 L10.445,8.593 C9.399,8.593 8.593,9.399 8.593,10.445 L8.593,21.555 C8.593,22.6 9.399,23.407 10.445,23.407 L21.555,23.407 C22.6,23.407 23.407,22.601 23.407,21.555 L23.407,10.445 C23.407,9.399 22.6,8.593 21.555,8.593 L21.555,8.593 Z M16.011,13.09 C17.654,13.09 18.985,14.38 18.985,15.972 C18.985,17.563 17.654,18.854 16.011,18.854 C14.369,18.854 13.038,17.563 13.038,15.972 C13.038,14.38 14.37,13.09 16.011,13.09 L16.011,13.09 Z M21.555,21.092 C21.555,21.417 21.416,21.555 21.092,21.555 L10.908,21.555 C10.584,21.555 10.445,21.417 10.445,21.092 L10.445,14.611 L11.599,14.862 C11.475,15.265 11.408,15.691 11.408,16.133 C11.408,18.595 13.47,20.593 16.011,20.593 C18.553,20.593 20.614,18.596 20.614,16.133 C20.614,15.691 20.547,15.265 20.423,14.862 L21.555,14.611 L21.555,21.092 L21.555,21.092 Z M21.555,12.76 C21.555,13.016 21.348,13.223 21.092,13.223 L19.24,13.223 C18.984,13.223 18.777,13.016 18.777,12.76 L18.777,10.908 C18.777,10.652 18.984,10.445 19.24,10.445 L21.092,10.445 C21.348,10.445 21.555,10.652 21.555,10.908 L21.555,12.76 L21.555,12.76 Z" id="Shape" fill="#FFFFFF"></path>
                </g>
            </g>
        </g>
    </g>
</svg>