<?xml version="1.0" encoding="UTF-8"?>
<svg width="33px" height="33px" viewBox="0 0 33 33" version="1.1" xmlns="http://www.w3.org/2000/svg" xmlns:xlink="http://www.w3.org/1999/xlink">
    <!-- Generator: Sketch 3.6.1 (26313) - http://www.bohemiancoding.com/sketch -->
    <title>32</title>
    <desc>Created with Sketch.</desc>
    <defs></defs>
    <g id="Welcome" stroke="none" stroke-width="1" fill="none" fill-rule="evenodd">
        <g id="Web-Desktop-Main" transform="translate(-96.000000, -430.000000)">
            <g id="Header-Image" transform="translate(-5.500000, 52.839138)">
                <g id="32" transform="translate(102.000000, 378.000000)">
                    <g id="Group">
                        <path d="M16,31.5 C7.453,31.5 0.5,24.547 0.5,16 C0.5,7.453 7.453,0.5 16,0.5 C24.547,0.5 31.5,7.453 31.5,16 C31.5,24.547 24.547,31.5 16,31.5 L16,31.5 Z" id="Shape" fill="#FFFFFF"></path>
                        <path d="M16,1 C24.271,1 31,7.729 31,16 C31,24.271 24.271,31 16,31 C7.729,31 1,24.271 1,16 C1,7.729 7.729,1 16,1 L16,1 Z M16,0 C7.163,0 0,7.163 0,16 C0,24.837 7.163,32 16,32 C24.837,32 32,24.837 32,16 C32,7.163 24.837,0 16,0 L16,0 L16,0 Z" id="Shape" fill="#00BDFF"></path>
                        <path d="M16,3.007 C23.165,3.007 28.993,8.836 28.993,16 C28.993,23.164 23.164,28.993 16,28.993 C8.836,28.993 3.007,23.164 3.007,16 C3.007,8.836 8.835,3.007 16,3.007" id="Shape" fill="#000000"></path>
                        <g opacity="0.15" transform="translate(3.000000, 3.000000)" id="Shape" fill="#FFFFFF">
                            <path d="M13,0.006 C5.836,0.006 0.006,5.836 0.006,13 C0.006,16.605 1.484,19.871 3.864,22.227 L22.227,3.864 C19.871,1.485 16.605,0.006 13,0.006 L13,0.006 Z"></path>
                        </g>
                    </g>
                    <path d="M23.247,21.927 L23.247,16.567 C23.247,13.695 21.714,12.359 19.67,12.359 C18.021,12.359 17.282,13.266 16.87,13.903 L16.87,12.579 L13.763,12.579 C13.804,13.456 13.763,21.927 13.763,21.927 L16.87,21.927 L16.87,16.706 C16.87,16.427 16.89,16.148 16.973,15.949 C17.197,15.391 17.708,14.813 18.566,14.813 C19.691,14.813 20.14,15.67 20.14,16.926 L20.14,21.927 L23.247,21.927 L23.247,21.927 Z M10.49,11.303 C11.573,11.303 12.248,10.585 12.248,9.687 C12.228,8.77 11.573,8.073 10.51,8.073 C9.447,8.073 8.753,8.77 8.753,9.687 C8.753,10.584 9.428,11.303 10.47,11.303 L10.49,11.303 L10.49,11.303 Z M12.043,21.927 L12.043,12.579 L8.937,12.579 L8.937,21.927 L12.043,21.927 L12.043,21.927 Z" id="Shape" fill="#FFFFFF"></path>
                </g>
            </g>
        </g>
    </g>
</svg>