<?xml version="1.0" encoding="UTF-8"?>
<svg width="33px" height="33px" viewBox="0 0 33 33" version="1.1" xmlns="http://www.w3.org/2000/svg" xmlns:xlink="http://www.w3.org/1999/xlink">
    <!-- Generator: Sketch 3.6.1 (26313) - http://www.bohemiancoding.com/sketch -->
    <title>3</title>
    <desc>Created with Sketch.</desc>
    <defs></defs>
    <g id="Welcome" stroke="none" stroke-width="1" fill="none" fill-rule="evenodd">
        <g id="Web-Desktop-Main" transform="translate(-56.000000, -430.000000)">
            <g id="Header-Image" transform="translate(-5.500000, 52.839138)">
                <g id="3" transform="translate(62.000000, 378.000000)">
                    <g id="Group">
                        <path d="M16,31.5 C7.453,31.5 0.5,24.547 0.5,16 C0.5,7.453 7.453,0.5 16,0.5 C24.547,0.5 31.5,7.453 31.5,16 C31.5,24.547 24.547,31.5 16,31.5 L16,31.5 Z" id="Shape" fill="#FFFFFF"></path>
                        <path d="M16,1 C24.271,1 31,7.729 31,16 C31,24.271 24.271,31 16,31 C7.729,31 1,24.271 1,16 C1,7.729 7.729,1 16,1 L16,1 Z M16,0 C7.163,0 0,7.163 0,16 C0,24.837 7.163,32 16,32 C24.837,32 32,24.837 32,16 C32,7.163 24.837,0 16,0 L16,0 L16,0 Z" id="Shape" fill="#00BDFF"></path>
                        <path d="M16,3.007 C23.165,3.007 28.993,8.836 28.993,16 C28.993,23.164 23.164,28.993 16,28.993 C8.836,28.993 3.007,23.164 3.007,16 C3.007,8.836 8.835,3.007 16,3.007" id="Shape" fill="#000000"></path>
                        <g opacity="0.3" transform="translate(3.000000, 3.000000)" id="Shape" fill="#FFFFFF">
                            <path d="M13,0.006 C5.836,0.006 0.006,5.836 0.006,13 C0.006,16.605 1.484,19.871 3.864,22.227 L22.227,3.864 C19.871,1.485 16.605,0.006 13,0.006 L13,0.006 Z"></path>
                        </g>
                    </g>
                    <path d="M18.014,9.564 C16.575,10.087 15.666,11.438 15.77,12.915 L15.805,13.485 L15.229,13.415 C13.135,13.147 11.304,12.24 9.75,10.715 L8.99,9.959 L8.794,10.518 C8.38,11.763 8.645,13.078 9.508,13.963 C9.968,14.452 9.864,14.522 9.071,14.231 C8.795,14.138 8.553,14.068 8.53,14.103 C8.45,14.185 8.726,15.243 8.944,15.662 C9.243,16.244 9.853,16.814 10.521,17.152 L11.085,17.42 L10.418,17.432 C9.774,17.432 9.751,17.444 9.82,17.689 C10.05,18.445 10.959,19.248 11.972,19.598 L12.686,19.842 L12.065,20.214 C11.144,20.75 10.062,21.052 8.98,21.075 C8.461,21.087 8.036,21.133 8.036,21.168 C8.036,21.284 9.441,21.935 10.257,22.192 C12.708,22.948 15.621,22.622 17.808,21.331 C19.362,20.411 20.915,18.585 21.641,16.815 C22.033,15.873 22.424,14.15 22.424,13.325 C22.424,12.789 22.459,12.72 23.103,12.08 C23.483,11.708 23.84,11.301 23.909,11.184 C24.024,10.963 24.012,10.963 23.426,11.16 C22.448,11.509 22.309,11.463 22.793,10.939 C23.149,10.567 23.576,9.892 23.576,9.694 C23.576,9.659 23.404,9.717 23.207,9.822 C23,9.938 22.54,10.113 22.194,10.217 L21.573,10.415 L21.009,10.03 C20.698,9.821 20.261,9.588 20.031,9.518 C19.442,9.355 18.544,9.378 18.014,9.564 L18.014,9.564 Z" id="Shape" fill="#FFFFFF"></path>
                </g>
            </g>
        </g>
    </g>
</svg>